<?xml version="1.0" encoding="utf-8"?>
<!-- Generator: Adobe Illustrator 16.0.0, SVG Export Plug-In . SVG Version: 6.00 Build 0)  -->
<!DOCTYPE svg PUBLIC "-//W3C//DTD SVG 1.1//EN" "http://www.w3.org/Graphics/SVG/1.1/DTD/svg11.dtd">
<svg version="1.1" id="Layer_1" xmlns="http://www.w3.org/2000/svg" xmlns:xlink="http://www.w3.org/1999/xlink" x="0px" y="0px"
	 width="60px" height="60px" viewBox="0 0 60 60" enable-background="new 0 0 60 60" xml:space="preserve">
<g>
	<path fill="#FFFFFF" d="M54.85,19.695H40.444c-0.016,0-0.03-0.014-0.03-0.03V5.259c0-1.468-1.193-2.661-2.661-2.661H21.769
		c-1.468,0-2.661,1.193-2.661,2.661v14.405c0,0.016-0.014,0.03-0.03,0.03H4.672c-1.468,0-2.661,1.193-2.661,2.661v15.985
		c0,1.468,1.193,2.66,2.661,2.66h14.405c0.016,0,0.03,0.016,0.03,0.03v14.406c0,1.468,1.193,2.66,2.661,2.66h15.984
		c1.468,0,2.661-1.192,2.661-2.66V41.031c0-0.015,0.015-0.03,0.03-0.03H54.85c1.468,0,2.661-1.192,2.661-2.66V22.356
		C57.511,20.888,56.317,19.695,54.85,19.695z M54.88,38.341c0,0.018-0.013,0.03-0.03,0.03H40.444c-1.467,0-2.66,1.194-2.66,2.66
		v14.406c0,0.018-0.014,0.03-0.031,0.03H21.769c-0.018,0-0.031-0.013-0.031-0.03V41.031c0-1.466-1.194-2.66-2.66-2.66H4.672
		c-0.017,0-0.03-0.013-0.03-0.03V22.356c0-0.018,0.013-0.031,0.03-0.031h14.405c1.466,0,2.66-1.194,2.66-2.66V5.259
		c0-0.017,0.014-0.03,0.031-0.03h15.984c0.018,0,0.031,0.013,0.031,0.03v14.405c0,1.466,1.193,2.66,2.66,2.66H54.85
		c0.018,0,0.03,0.014,0.03,0.031V38.341z"/>
	<path fill="#FFFFFF" d="M26.588,15.73h6.346c0.471,0,0.904-0.25,1.138-0.657c0.235-0.408,0.235-0.908,0-1.316L30.9,8.263
		c-0.235-0.408-0.67-0.658-1.139-0.658s-0.904,0.25-1.139,0.658l-3.173,5.495c-0.234,0.408-0.234,0.908,0,1.316
		C25.684,15.48,26.118,15.73,26.588,15.73z M29.761,11.551l0.896,1.55h-1.791L29.761,11.551z"/>
	<path fill="#FFFFFF" d="M32.934,44.966h-6.346c-0.47,0-0.904,0.25-1.139,0.657c-0.234,0.407-0.234,0.908,0,1.316l3.173,5.493
		c0.235,0.407,0.67,0.659,1.139,0.659s0.904-0.252,1.139-0.659l3.171-5.493c0.235-0.408,0.235-0.909,0-1.316
		C33.838,45.216,33.404,44.966,32.934,44.966z M29.761,49.146l-0.896-1.551h1.791L29.761,49.146z"/>
	<path fill="#FFFFFF" d="M51.846,29.209l-5.494-3.172c-0.408-0.235-0.909-0.235-1.316,0c-0.406,0.234-0.657,0.668-0.657,1.138v6.346
		c0,0.471,0.251,0.904,0.657,1.139c0.204,0.116,0.432,0.175,0.658,0.175c0.228,0,0.454-0.059,0.658-0.175l5.494-3.172
		c0.408-0.236,0.658-0.67,0.658-1.141C52.504,29.879,52.254,29.443,51.846,29.209z M47.008,31.243v-1.791l1.551,0.896L47.008,31.243
		z"/>
	<path fill="#FFFFFF" d="M14.486,26.036c-0.408-0.234-0.908-0.234-1.316,0l-5.495,3.173c-0.408,0.234-0.658,0.67-0.658,1.138
		c0,0.47,0.25,0.904,0.658,1.141l5.495,3.172c0.204,0.116,0.43,0.175,0.658,0.175c0.228,0,0.455-0.059,0.658-0.175
		c0.406-0.234,0.657-0.668,0.657-1.139v-6.346C15.143,26.705,14.893,26.271,14.486,26.036z M12.514,31.243l-1.55-0.896l1.55-0.896
		V31.243L12.514,31.243z"/>
	<path fill="#FFFFFF" d="M29.893,24.464c-3.318,0-6.016,2.699-6.016,6.016c0,3.317,2.698,6.016,6.016,6.016
		c3.317,0,6.015-2.699,6.015-6.016C35.908,27.164,33.21,24.464,29.893,24.464z M29.893,33.866c-1.868,0-3.386-1.52-3.386-3.386
		s1.519-3.385,3.386-3.385c1.867,0,3.384,1.518,3.384,3.385S31.76,33.866,29.893,33.866z"/>
</g>
</svg>
