<?xml version="1.0" encoding="utf-8"?>
<!-- Generator: Adobe Illustrator 16.0.0, SVG Export Plug-In . SVG Version: 6.00 Build 0)  -->
<!DOCTYPE svg PUBLIC "-//W3C//DTD SVG 1.1//EN" "http://www.w3.org/Graphics/SVG/1.1/DTD/svg11.dtd">
<svg version="1.1" id="Layer_1" xmlns="http://www.w3.org/2000/svg" xmlns:xlink="http://www.w3.org/1999/xlink" x="0px" y="0px"
	 width="60px" height="60px" viewBox="0 0 60 60" enable-background="new 0 0 60 60" xml:space="preserve">
<g>
	<path fill="#FFFFFF" d="M43.401,35.461c0.107-1.152,0.164-2.326,0.164-3.517c0-5.981-1.385-13.448-3.613-19.484
		c-3.43-9.292-7.203-11.243-9.765-11.243s-6.334,1.951-9.765,11.243c-2.229,6.037-3.612,13.503-3.612,19.484
		c0,1.19,0.057,2.364,0.165,3.517c-4.76,0.818-8.432,5.737-8.432,11.664c0,3.064,0.973,5.968,2.743,8.171
		c1.83,2.277,4.294,3.559,6.941,3.608c0.009,0,0.016,0,0.024,0c0.397,0,0.774-0.18,1.025-0.487c0.257-0.314,0.354-0.729,0.266-1.127
		c-0.297-1.322-0.25-3.355,0.853-4.734c0.681-0.85,1.683-1.331,2.983-1.432c1.658,1.613,3.521,2.609,5.485,2.92v3.538
		c0,0.729,0.593,1.322,1.323,1.322c0.731,0,1.323-0.593,1.323-1.322v-3.538c1.965-0.311,3.827-1.307,5.486-2.92
		c1.3,0.101,2.303,0.582,2.982,1.432c1.104,1.379,1.151,3.412,0.854,4.734c-0.089,0.397,0.008,0.813,0.267,1.127
		c0.25,0.308,0.628,0.487,1.025,0.487c0.008,0,0.014,0,0.022,0c2.647-0.05,5.112-1.331,6.941-3.608
		c1.769-2.203,2.744-5.104,2.744-8.171C51.833,41.198,48.161,36.279,43.401,35.461z M30.188,3.863c2.26,0,4.849,3.256,6.994,8.752
		c-1.862,1.815-4.382,2.848-6.994,2.848c-2.612,0-5.13-1.032-6.992-2.848C25.34,7.119,27.93,3.863,30.188,3.863z M18.33,50.902
		c-1.212,1.515-1.619,3.425-1.587,5.115c-3.172-0.951-5.553-4.597-5.553-8.893c0-4.582,2.667-8.384,6.131-9.037
		c0.589,3.462,1.675,6.644,3.199,9.283c0.292,0.506,0.599,0.987,0.916,1.44C19.921,49.282,18.939,50.143,18.33,50.902z
		 M31.511,51.347V39.375c0-0.731-0.592-1.322-1.323-1.322c-0.729,0-1.323,0.591-1.323,1.322v11.972
		c-2.242-0.521-4.355-2.355-6.055-5.301c-2.162-3.744-3.353-8.754-3.353-14.102c0-5.071,1.05-11.274,2.785-16.644
		c2.236,1.801,5.045,2.809,7.946,2.809c2.902,0,5.711-1.007,7.946-2.809c1.736,5.37,2.786,11.572,2.786,16.644
		c0,5.348-1.192,10.357-3.354,14.102C35.867,48.991,33.753,50.826,31.511,51.347z M43.633,56.018
		c0.033-1.69-0.374-3.601-1.587-5.115c-0.609-0.76-1.591-1.62-3.104-2.091c0.315-0.453,0.622-0.935,0.915-1.44
		c1.523-2.64,2.61-5.821,3.199-9.283c3.464,0.653,6.129,4.455,6.129,9.037C49.186,51.421,46.808,55.066,43.633,56.018z"/>
	<path fill="#FFFFFF" d="M30.188,22.144c-3.293,0-5.973,2.68-5.973,5.974c0,3.293,2.68,5.973,5.973,5.973
		c3.295,0,5.975-2.68,5.975-5.973C36.162,24.824,33.482,22.144,30.188,22.144z M30.188,31.446c-1.834,0-3.327-1.495-3.327-3.328
		c0-1.835,1.493-3.328,3.327-3.328c1.836,0,3.328,1.493,3.328,3.328C33.516,29.952,32.023,31.446,30.188,31.446z"/>
</g>
</svg>
