<?xml version="1.0" encoding="utf-8"?>
<!-- Generator: Adobe Illustrator 16.0.0, SVG Export Plug-In . SVG Version: 6.00 Build 0)  -->
<!DOCTYPE svg PUBLIC "-//W3C//DTD SVG 1.1//EN" "http://www.w3.org/Graphics/SVG/1.1/DTD/svg11.dtd">
<svg version="1.1" id="Layer_1" xmlns="http://www.w3.org/2000/svg" xmlns:xlink="http://www.w3.org/1999/xlink" x="0px" y="0px"
	 width="60px" height="60px" viewBox="0 0 60 60" enable-background="new 0 0 60 60" xml:space="preserve">
<g>
	<path fill="#FFFFFF" d="M26.248,24.318H18.33c-0.733,0-1.329,0.595-1.329,1.329v7.917c0,0.733,0.595,1.33,1.329,1.33h7.917
		c0.734,0,1.329-0.597,1.329-1.33v-7.917C27.576,24.913,26.981,24.318,26.248,24.318z M24.918,32.235H19.66v-5.259h5.259V32.235z"/>
	<path fill="#FFFFFF" d="M42.08,24.318h-7.915c-0.735,0-1.33,0.595-1.33,1.329v7.917c0,0.733,0.595,1.33,1.33,1.33h7.915
		c0.735,0,1.33-0.597,1.33-1.33v-7.917C43.41,24.913,42.815,24.318,42.08,24.318z M40.753,32.235h-5.259v-5.259h5.259V32.235z"/>
	<path fill="#FFFFFF" d="M57.916,32.233h-6.589V17.73c0-0.734-0.594-1.329-1.327-1.329h-6.59V9.813c0-0.734-0.595-1.329-1.33-1.329
		H18.33c-0.733,0-1.329,0.595-1.329,1.329v6.588h-6.589c-0.734,0-1.33,0.595-1.33,1.329v14.503H2.496
		c-0.734,0-1.329,0.597-1.329,1.329V49.4c0,0.732,0.595,1.327,1.329,1.327h7.917c0.734,0,1.329-0.595,1.329-1.327V42.81h5.26V49.4
		c0,0.732,0.595,1.327,1.329,1.327h7.917c0.734,0,1.329-0.595,1.329-1.327V42.81h5.259V49.4c0,0.732,0.595,1.327,1.33,1.327h7.915
		c0.735,0,1.33-0.595,1.33-1.327V42.81h5.261V49.4c0,0.732,0.595,1.327,1.329,1.327h7.916c0.734,0,1.329-0.595,1.329-1.327V33.563
		C59.245,32.83,58.65,32.233,57.916,32.233z M56.589,48.071h-5.262V41.48c0-0.733-0.594-1.327-1.327-1.327h-7.92
		c-0.732,0-1.327,0.594-1.327,1.327v6.591h-5.259V41.48c0-0.733-0.597-1.327-1.329-1.327h-7.917c-0.734,0-1.329,0.594-1.329,1.327
		v6.591H19.66V41.48c0-0.733-0.595-1.327-1.33-1.327h-7.917c-0.734,0-1.33,0.594-1.33,1.327v6.591H3.824v-13.18h6.588
		c0.734,0,1.329-0.594,1.329-1.329V19.059h6.589c0.734,0,1.329-0.595,1.329-1.329v-6.588h21.094v6.588
		c0,0.734,0.595,1.329,1.327,1.329h6.591v14.503c0,0.735,0.595,1.329,1.329,1.329h6.586v13.18H56.589z"/>
</g>
</svg>
